{
  "accessors": [
    {
      "bufferView": 2,
      "componentType": 5126,
      "count": 338,
      "max": [
        50.676486968994141,
        6.5181360244750977,
        7.9707088470458984
      ],
      "min": [
        17.464523315429688,
        -6.4099230766296387,
        -0.59876799583435059
      ],
      "type": "VEC3"
    },
    {
      "bufferView": 2,
      "byteOffset": 4056,
      "componentType": 5126,
      "count": 338,
      "max": [
        1,
        1,
        1
      ],
      "min": [
        -1,
        -1,
        0
      ],
      "type": "VEC3"
    },
    {
      "bufferView": 3,
      "componentType": 5126,
      "count": 338,
      "max": [
        0.99996405839920044,
        0.25693440437316895,
        1,
        1
      ],
      "min": [
        -1,
        -1,
        -1,
        1
      ],
      "type": "VEC4"
    },
    {
      "bufferView": 1,
      "componentType": 5126,
      "count": 338,
      "max": [
        0.99000000953674316,
        0.99000000953674316
      ],
      "min": [
        0.0099999997764825821,
        0.05366700142621994
      ],
      "type": "VEC2"
    },
    {
      "bufferView": 0,
      "componentType": 5125,
      "count": 1086,
      "max": [
        337
      ],
      "min": [
        0
      ],
      "type": "SCALAR"
    },
    {
      "bufferView": 2,
      "byteOffset": 8112,
      "componentType": 5126,
      "count": 14171,
      "max": [
        13.492374420166016,
        8.14404296875,
        21.240896224975586
      ],
      "min": [
        -50.814617156982422,
        -8.1483898162841797,
        -7.4693059921264648
      ],
      "type": "VEC3"
    },
    {
      "bufferView": 2,
      "byteOffset": 178164,
      "componentType": 5126,
      "count": 14171,
      "max": [
        1,
        1,
        1
      ],
      "min": [
        -1,
        -1,
        -1
      ],
      "type": "VEC3"
    },
    {
      "bufferView": 3,
      "byteOffset": 5408,
      "componentType": 5126,
      "count": 14171,
      "max": [
        1,
        1,
        1,
        1
      ],
      "min": [
        -1,
        -1,
        -1,
        -1
      ],
      "type": "VEC4"
    },
    {
      "bufferView": 1,
      "byteOffset": 2704,
      "componentType": 5126,
      "count": 14171,
      "max": [
        0.98619002103805542,
        0.99000000953674316
      ],
      "min": [
        0.0099999997764825821,
        0.0099999997764825821
      ],
      "type": "VEC2"
    },
    {
      "bufferView": 0,
      "byteOffset": 4344,
      "componentType": 5125,
      "count": 43362,
      "max": [
        14170
      ],
      "min": [
        0
      ],
      "type": "SCALAR"
    },
    {
      "bufferView": 2,
      "byteOffset": 348216,
      "componentType": 5126,
      "count": 9120,
      "max": [
        85.178977966308594,
        4.5862250328063965,
        4.0467472076416016
      ],
      "min": [
        68.939659118652344,
        -2.8897330760955811,
        -0.56092798709869385
      ],
      "type": "VEC3"
    },
    {
      "bufferView": 2,
      "byteOffset": 457656,
      "componentType": 5126,
      "count": 9120,
      "max": [
        1,
        0.99574023485183716,
        1
      ],
      "min": [
        -0.98985135555267334,
        -0.99574023485183716,
        -1
      ],
      "type": "VEC3"
    },
    {
      "bufferView": 3,
      "byteOffset": 232144,
      "componentType": 5126,
      "count": 9120,
      "max": [
        0.99999493360519409,
        1,
        0.073696471750736237,
        1
      ],
      "min": [
        -0.99999493360519409,
        -0.99999064207077026,
        -0.073681429028511047,
        1
      ],
      "type": "VEC4"
    },
    {
      "bufferView": 1,
      "byteOffset": 116072,
      "componentType": 5126,
      "count": 9120,
      "max": [
        0.97618597745895386,
        0.99000000953674316
      ],
      "min": [
        0.0099999997764825821,
        0.0099999997764825821
      ],
      "type": "VEC2"
    },
    {
      "bufferView": 0,
      "byteOffset": 177792,
      "componentType": 5125,
      "count": 19566,
      "max": [
        9119
      ],
      "min": [
        0
      ],
      "type": "SCALAR"
    },
    {
      "bufferView": 2,
      "byteOffset": 567096,
      "componentType": 5126,
      "count": 3040,
      "max": [
        88.302940368652344,
        3.6594700813293457,
        4.0467472076416016
      ],
      "min": [
        84.38824462890625,
        -0.24749599397182465,
        -0.56092798709869385
      ],
      "type": "VEC3"
    },
    {
      "bufferView": 2,
      "byteOffset": 603576,
      "componentType": 5126,
      "count": 3040,
      "max": [
        1,
        0.99574023485183716,
        1
      ],
      "min": [
        -0.98985135555267334,
        -0.99574023485183716,
        -1
      ],
      "type": "VEC3"
    },
    {
      "bufferView": 3,
      "byteOffset": 378064,
      "componentType": 5126,
      "count": 3040,
      "max": [
        0.99999493360519409,
        1,
        0.073692269623279572,
        1
      ],
      "min": [
        -0.99999493360519409,
        -0.99999070167541504,
        -0.073681429028511047,
        1
      ],
      "type": "VEC4"
    },
    {
      "bufferView": 1,
      "byteOffset": 189032,
      "componentType": 5126,
      "count": 3040,
      "max": [
        0.97618597745895386,
        0.99000000953674316
      ],
      "min": [
        0.0099999997764825821,
        0.0099999997764825821
      ],
      "type": "VEC2"
    },
    {
      "bufferView": 0,
      "byteOffset": 256056,
      "componentType": 5125,
      "count": 6522,
      "max": [
        3039
      ],
      "min": [
        0
      ],
      "type": "SCALAR"
    },
    {
      "bufferView": 2,
      "byteOffset": 640056,
      "componentType": 5126,
      "count": 6314,
      "max": [
        53.679920196533203,
        6.2957348823547363,
        -0.11748799681663513
      ],
      "min": [
        12.505893707275391,
        -6.2965168952941895,
        -7.4312038421630859
      ],
      "type": "VEC3"
    },
    {
      "bufferView": 2,
      "byteOffset": 715824,
      "componentType": 5126,
      "count": 6314,
      "max": [
        1,
        1,
        1
      ],
      "min": [
        -1,
        -1,
        -1
      ],
      "type": "VEC3"
    },
    {
      "bufferView": 3,
      "byteOffset": 426704,
      "componentType": 5126,
      "count": 6314,
      "max": [
        1,
        1,
        1,
        1
      ],
      "min": [
        -1,
        -1,
        -1,
        -1
      ],
      "type": "VEC4"
    },
    {
      "bufferView": 1,
      "byteOffset": 213352,
      "componentType": 5126,
      "count": 6314,
      "max": [
        0.98214602470397949,
        1
      ],
      "min": [
        0,
        0.0099999997764825821
      ],
      "type": "VEC2"
    },
    {
      "bufferView": 0,
      "byteOffset": 282144,
      "componentType": 5125,
      "count": 16884,
      "max": [
        6313
      ],
      "min": [
        0
      ],
      "type": "SCALAR"
    },
    {
      "bufferView": 2,
      "byteOffset": 791592,
      "componentType": 5126,
      "count": 6314,
      "max": [
        94.453681945800781,
        6.2957348823547363,
        -0.11748799681663513
      ],
      "min": [
        53.279655456542969,
        -6.2965168952941895,
        -7.4312038421630859
      ],
      "type": "VEC3"
    },
    {
      "bufferView": 2,
      "byteOffset": 867360,
      "componentType": 5126,
      "count": 6314,
      "max": [
        1,
        1,
        1
      ],
      "min": [
        -1,
        -1,
        -1
      ],
      "type": "VEC3"
    },
    {
      "bufferView": 3,
      "byteOffset": 527728,
      "componentType": 5126,
      "count": 6314,
      "max": [
        1,
        1,
        1,
        1
      ],
      "min": [
        -1,
        -1,
        -1,
        -1
      ],
      "type": "VEC4"
    },
    {
      "bufferView": 1,
      "byteOffset": 263864,
      "componentType": 5126,
      "count": 6314,
      "max": [
        0.98214602470397949,
        1
      ],
      "min": [
        0,
        0.0099999997764825821
      ],
      "type": "VEC2"
    },
    {
      "bufferView": 0,
      "byteOffset": 349680,
      "componentType": 5125,
      "count": 16884,
      "max": [
        6313
      ],
      "min": [
        0
      ],
      "type": "SCALAR"
    },
    {
      "bufferView": 2,
      "byteOffset": 943128,
      "componentType": 5126,
      "count": 684,
      "max": [
        79.035850524902344,
        4.5314970016479492,
        3.2154889106750488
      ],
      "min": [
        63.930801391601562,
        -3.127208948135376,
        -0.56646502017974854
      ],
      "type": "VEC3"
    },
    {
      "bufferView": 2,
      "byteOffset": 951336,
      "componentType": 5126,
      "count": 684,
      "max": [
        1,
        1,
        1
      ],
      "min": [
        -1,
        -1,
        -1
      ],
      "type": "VEC3"
    },
    {
      "bufferView": 3,
      "byteOffset": 628752,
      "componentType": 5126,
      "count": 684,
      "max": [
        1,
        1,
        1,
        1
      ],
      "min": [
        -1,
        -1,
        -1,
        1
      ],
      "type": "VEC4"
    },
    {
      "bufferView": 1,
      "byteOffset": 314376,
      "componentType": 5126,
      "count": 684,
      "max": [
        0.71877598762512207,
        0.99000000953674316
      ],
      "min": [
        0.0099999997764825821,
        0.0099999997764825821
      ],
      "type": "VEC2"
    },
    {
      "bufferView": 0,
      "byteOffset": 417216,
      "componentType": 5125,
      "count": 1188,
      "max": [
        683
      ],
      "min": [
        0
      ],
      "type": "SCALAR"
    }
  ],
  "asset": {
    "extras": {
      "author": "ta.holovan (https://sketchfab.com/ta.holovan)",
      "license": "CC-BY-4.0 (http://creativecommons.org/licenses/by/4.0/)",
      "source": "https://sketchfab.com/3d-models/wild-west-locomotive-7de4d98a2c3a4c89ae86f0e212cc28ac",
      "title": "Wild West - Locomotive"
    },
    "generator": "Sketchfab-9.34.0",
    "version": "2.0"
  },
  "bufferViews": [
    {
      "buffer": 0,
      "byteLength": 421968,
      "byteOffset": 0,
      "name": "floatBufferViews",
      "target": 34963
    },
    {
      "buffer": 0,
      "byteLength": 319848,
      "byteOffset": 421968,
      "byteStride": 8,
      "name": "floatBufferViews",
      "target": 34962
    },
    {
      "buffer": 0,
      "byteLength": 959544,
      "byteOffset": 741816,
      "byteStride": 12,
      "name": "floatBufferViews",
      "target": 34962
    },
    {
      "buffer": 0,
      "byteLength": 639696,
      "byteOffset": 1701360,
      "byteStride": 16,
      "name": "floatBufferViews",
      "target": 34962
    }
  ],
  "buffers": [
    {
      "byteLength": 2341056,
      "uri": "scene.bin"
    }
  ],
  "images": [
    {
      "uri": "textures/lambert4SG_baseColor.png"
    },
    {
      "uri": "textures/lambert4SG_metallicRoughness.png"
    },
    {
      "uri": "textures/lambert4SG_emissive.png"
    },
    {
      "uri": "textures/lambert4SG_normal.png"
    },
    {
      "uri": "textures/lambert5SG_baseColor.png"
    },
    {
      "uri": "textures/lambert5SG_metallicRoughness.png"
    },
    {
      "uri": "textures/lambert5SG_normal.png"
    },
    {
      "uri": "textures/lambert6SG_baseColor.png"
    },
    {
      "uri": "textures/lambert6SG_metallicRoughness.png"
    },
    {
      "uri": "textures/lambert6SG_normal.png"
    },
    {
      "uri": "textures/lambert7SG_baseColor.png"
    },
    {
      "uri": "textures/lambert7SG_metallicRoughness.png"
    },
    {
      "uri": "textures/lambert7SG_normal.png"
    },
    {
      "uri": "textures/lambert8SG_baseColor.png"
    },
    {
      "uri": "textures/lambert8SG_metallicRoughness.png"
    },
    {
      "uri": "textures/lambert8SG_normal.png"
    }
  ],
  "materials": [
    {
      "alphaMode": "BLEND",
      "doubleSided": true,
      "emissiveFactor": [
        1,
        1,
        1
      ],
      "emissiveTexture": {
        "index": 2,
        "texCoord": 0
      },
      "name": "lambert4SG",
      "normalTexture": {
        "index": 3,
        "scale": 1,
        "texCoord": 0
      },
      "occlusionTexture": {
        "index": 1,
        "strength": 1,
        "texCoord": 0
      },
      "pbrMetallicRoughness": {
        "baseColorFactor": [
          1,
          1,
          1,
          1
        ],
        "baseColorTexture": {
          "index": 0,
          "texCoord": 0
        },
        "metallicFactor": 0.5,
        "metallicRoughnessTexture": {
          "index": 1,
          "texCoord": 0
        },
        "roughnessFactor": 1
      }
    },
    {
      "doubleSided": true,
      "name": "lambert5SG",
      "normalTexture": {
        "index": 6,
        "scale": 1,
        "texCoord": 0
      },
      "occlusionTexture": {
        "index": 5,
        "strength": 1,
        "texCoord": 0
      },
      "pbrMetallicRoughness": {
        "baseColorFactor": [
          1,
          1,
          1,
          1
        ],
        "baseColorTexture": {
          "index": 4,
          "texCoord": 0
        },
        "metallicFactor": 0.50028424809538574,
        "metallicRoughnessTexture": {
          "index": 5,
          "texCoord": 0
        },
        "roughnessFactor": 1
      }
    },
    {
      "alphaMode": "BLEND",
      "doubleSided": true,
      "name": "lambert6SG",
      "normalTexture": {
        "index": 9,
        "scale": 1,
        "texCoord": 0
      },
      "occlusionTexture": {
        "index": 8,
        "strength": 1,
        "texCoord": 0
      },
      "pbrMetallicRoughness": {
        "baseColorFactor": [
          1,
          1,
          1,
          1
        ],
        "baseColorTexture": {
          "index": 7,
          "texCoord": 0
        },
        "metallicFactor": 0.5,
        "metallicRoughnessTexture": {
          "index": 8,
          "texCoord": 0
        },
        "roughnessFactor": 1
      }
    },
    {
      "doubleSided": true,
      "name": "lambert7SG",
      "normalTexture": {
        "index": 12,
        "scale": 1,
        "texCoord": 0
      },
      "occlusionTexture": {
        "index": 11,
        "strength": 1,
        "texCoord": 0
      },
      "pbrMetallicRoughness": {
        "baseColorFactor": [
          1,
          1,
          1,
          1
        ],
        "baseColorTexture": {
          "index": 10,
          "texCoord": 0
        },
        "metallicFactor": 1,
        "metallicRoughnessTexture": {
          "index": 11,
          "texCoord": 0
        },
        "roughnessFactor": 1
      }
    },
    {
      "doubleSided": true,
      "name": "lambert8SG",
      "normalTexture": {
        "index": 15,
        "scale": 1,
        "texCoord": 0
      },
      "occlusionTexture": {
        "index": 14,
        "strength": 1,
        "texCoord": 0
      },
      "pbrMetallicRoughness": {
        "baseColorFactor": [
          1,
          1,
          1,
          1
        ],
        "baseColorTexture": {
          "index": 13,
          "texCoord": 0
        },
        "metallicFactor": 1,
        "metallicRoughnessTexture": {
          "index": 14,
          "texCoord": 0
        },
        "roughnessFactor": 1
      }
    }
  ],
  "meshes": [
    {
      "primitives": [
        {
          "attributes": {
            "NORMAL": 1,
            "POSITION": 0,
            "TANGENT": 2,
            "TEXCOORD_0": 3
          },
          "indices": 4,
          "material": 1,
          "mode": 4
        }
      ]
    },
    {
      "primitives": [
        {
          "attributes": {
            "NORMAL": 6,
            "POSITION": 5,
            "TANGENT": 7,
            "TEXCOORD_0": 8
          },
          "indices": 9,
          "material": 0,
          "mode": 4
        }
      ]
    },
    {
      "primitives": [
        {
          "attributes": {
            "NORMAL": 11,
            "POSITION": 10,
            "TANGENT": 12,
            "TEXCOORD_0": 13
          },
          "indices": 14,
          "material": 3,
          "mode": 4
        }
      ]
    },
    {
      "primitives": [
        {
          "attributes": {
            "NORMAL": 16,
            "POSITION": 15,
            "TANGENT": 17,
            "TEXCOORD_0": 18
          },
          "indices": 19,
          "material": 3,
          "mode": 4
        }
      ]
    },
    {
      "primitives": [
        {
          "attributes": {
            "NORMAL": 21,
            "POSITION": 20,
            "TANGENT": 22,
            "TEXCOORD_0": 23
          },
          "indices": 24,
          "material": 2,
          "mode": 4
        }
      ]
    },
    {
      "primitives": [
        {
          "attributes": {
            "NORMAL": 26,
            "POSITION": 25,
            "TANGENT": 27,
            "TEXCOORD_0": 28
          },
          "indices": 29,
          "material": 2,
          "mode": 4
        }
      ]
    },
    {
      "primitives": [
        {
          "attributes": {
            "NORMAL": 31,
            "POSITION": 30,
            "TANGENT": 32,
            "TEXCOORD_0": 33
          },
          "indices": 34,
          "material": 4,
          "mode": 4
        }
      ]
    }
  ],
  "nodes": [
    {
      "children": [
        1
      ],
      "name": "RootNode (gltf orientation matrix)",
      "rotation": [
        -0.70710678118654746,
        -0,
        -0,
        0.70710678118654757
      ]
    },
    {
      "children": [
        2
      ],
      "name": "RootNode (model correction matrix)"
    },
    {
      "children": [
        3,
        4,
        5,
        6,
        7,
        8,
        9
      ],
      "name": "train_scene.obj.cleaner.materialmerger.gles"
    },
    {
      "mesh": 0,
      "name": ""
    },
    {
      "mesh": 1,
      "name": ""
    },
    {
      "mesh": 2,
      "name": ""
    },
    {
      "mesh": 3,
      "name": ""
    },
    {
      "mesh": 4,
      "name": ""
    },
    {
      "mesh": 5,
      "name": ""
    },
    {
      "mesh": 6,
      "name": ""
    }
  ],
  "samplers": [
    {
      "magFilter": 9729,
      "minFilter": 9987,
      "wrapS": 10497,
      "wrapT": 10497
    }
  ],
  "scene": 0,
  "scenes": [
    {
      "name": "OSG_Scene",
      "nodes": [
        0
      ]
    }
  ],
  "textures": [
    {
      "sampler": 0,
      "source": 0
    },
    {
      "sampler": 0,
      "source": 1
    },
    {
      "sampler": 0,
      "source": 2
    },
    {
      "sampler": 0,
      "source": 3
    },
    {
      "sampler": 0,
      "source": 4
    },
    {
      "sampler": 0,
      "source": 5
    },
    {
      "sampler": 0,
      "source": 6
    },
    {
      "sampler": 0,
      "source": 7
    },
    {
      "sampler": 0,
      "source": 8
    },
    {
      "sampler": 0,
      "source": 9
    },
    {
      "sampler": 0,
      "source": 10
    },
    {
      "sampler": 0,
      "source": 11
    },
    {
      "sampler": 0,
      "source": 12
    },
    {
      "sampler": 0,
      "source": 13
    },
    {
      "sampler": 0,
      "source": 14
    },
    {
      "sampler": 0,
      "source": 15
    }
  ]
}

